<svg width="26" height="12" viewBox="0 0 26 12" stroke="none" xmlns="http://www.w3.org/2000/svg">
	<style>:root { --light-grey: rgb(235, 235, 235); --background-color: rgb(255, 255, 255);}</style>
	<mask id="mask0" mask-type="alpha" maskUnits="userSpaceOnUse" x="0" y="0" width="26" height="10">
		<rect width="26" height="10"></rect>
	</mask>
	<g mask="url(#mask0)">
		<g filter="url(#filter0_d)">
			<path d="M11.5858 3.41422C12.3668 2.63317 13.6332 2.63317 14.4142 3.41422L19.6569 8.65685C21.1571 10.1571 23.192 11 25.3137 11H26V12H0V11H0.686293C2.80802 11 4.84286 10.1571 6.34315 8.65685L11.5858 3.41422Z" fill="#C4C4C4" stroke="#ff0000"></path>
			<path d="M26.5 11V10.5H26H25.3137C23.3246 10.5 21.4169 9.70982 20.0104 8.3033L14.7678 3.06066C13.7915 2.08435 12.2085 2.08435 11.2322 3.06066L5.98959 8.3033C4.58307 9.70982 2.67542 10.5 0.686293 10.5H0H-0.5V11V12V12.5H0H26H26.5V12V11Z" fill="var(--light-grey)" stroke="none" stroke-opacity="0"></path>
		</g>
	</g>
	<path d="M11.5858 3.41422C12.3668 2.63317 13.6332 2.63317 14.4142 3.41422L19.6569 8.65685C21.1571 10.1571 23.192 11 25.3137 11H26V12H0V11H0.686293C2.80802 11 4.84286 10.1571 6.34315 8.65685L11.5858 3.41422Z" fill="var(--background-color)"></path>
	<defs>
		<filter id="filter0_d" x="-5" y="-1.17157" width="36" height="19.1716" filterUnits="userSpaceOnUse" color-interpolation-filters="sRGB">
			<feFlood flood-opacity="0" result="BackgroundImageFix"></feFlood>
			<feColorMatrix in="SourceAlpha" type="matrix" values="0 0 0 0 0 0 0 0 0 0 0 0 0 0 0 0 0 0 127 0"></feColorMatrix>
			<feOffset dy="1"></feOffset>
			<feGaussianBlur stdDeviation="2"></feGaussianBlur>
			<feColorMatrix type="matrix" values="0 0 0 0 0 0 0 0 0 0 0 0 0 0 0 0 0 0 0.05 0"></feColorMatrix>
			<feBlend mode="normal" in2="BackgroundImageFix" result="effect1_dropShadow"></feBlend>
			<feBlend mode="normal" in="SourceGraphic" in2="effect1_dropShadow" result="shape"></feBlend>
		</filter>
	</defs>
</svg>